<svg width="25" height="24" viewBox="0 0 25 24" fill="none" xmlns="http://www.w3.org/2000/svg">
<path d="M3.10601 10.9393C2.52022 11.5251 2.52022 12.4749 3.10601 13.0607L12.6519 22.6066C13.2377 23.1924 14.1875 23.1924 14.7733 22.6066C15.3591 22.0208 15.3591 21.0711 14.7733 20.4853L6.28799 12L14.7733 3.51472C15.3591 2.92893 15.3591 1.97919 14.7733 1.3934C14.1875 0.807611 13.2377 0.807611 12.6519 1.3934L3.10601 10.9393ZM25 10.5H4.16667V13.5H25V10.5Z" fill="url(#paint0_linear)"/>
<path d="M3.10601 10.9393C2.52022 11.5251 2.52022 12.4749 3.10601 13.0607L12.6519 22.6066C13.2377 23.1924 14.1875 23.1924 14.7733 22.6066C15.3591 22.0208 15.3591 21.0711 14.7733 20.4853L6.28799 12L14.7733 3.51472C15.3591 2.92893 15.3591 1.97919 14.7733 1.3934C14.1875 0.807611 13.2377 0.807611 12.6519 1.3934L3.10601 10.9393ZM25 10.5H4.16667V13.5H25V10.5Z" fill="black"/>
<defs>
<linearGradient id="paint0_linear" x1="4.16667" y1="12" x2="25" y2="12" gradientUnits="userSpaceOnUse">
<stop stop-color="#46A25F"/>
<stop offset="1" stop-color="#15D94A"/>
</linearGradient>
</defs>
</svg>
